<svg xmlns="http://www.w3.org/2000/svg" xmlns:xlink="http://www.w3.org/1999/xlink" width="500" zoomAndPan="magnify" viewBox="0 0 375 599.999999" height="800" preserveAspectRatio="xMidYMid meet" version="1.0"><defs><g/><clipPath id="9fa58ec8aa"><path d="M 23.914062 63.585938 L 352.414062 63.585938 L 352.414062 537.585938 L 23.914062 537.585938 Z M 23.914062 63.585938 " clip-rule="nonzero"/></clipPath><clipPath id="44669b0174"><path d="M 153.804688 136.414062 L 221.304688 136.414062 L 221.304688 152.164062 L 153.804688 152.164062 Z M 153.804688 136.414062 " clip-rule="nonzero"/></clipPath><clipPath id="38917998cf"><path d="M 153.804688 448.371094 L 221.304688 448.371094 L 221.304688 464.121094 L 153.804688 464.121094 Z M 153.804688 448.371094 " clip-rule="nonzero"/></clipPath></defs><rect x="-37.5" width="450" fill="#ffffff" y="-60" height="719.999999" fill-opacity="1"/><rect x="-37.5" width="450" fill="#ffffff" y="-60" height="719.999999" fill-opacity="1"/><g clip-path="url(#9fa58ec8aa)"><path fill="#ff7116" d="M -48.835938 63.585938 L 425.164062 63.585938 L 425.164062 537.585938 L -48.835938 537.585938 Z M -48.835938 63.585938 " fill-opacity="1" fill-rule="nonzero"/></g><g fill="#000000" fill-opacity="1"><g transform="translate(-18.805111, 102.710761)"><g><path d="M 105.078125 0 L 71.515625 0 L 32.125 -45.34375 L 32.125 0 L 7.78125 0 L 7.78125 -106.890625 L 32.125 -106.890625 L 32.125 -63.21875 L 68.796875 -106.890625 L 98.34375 -106.890625 L 55.328125 -56.234375 Z M 105.078125 0 "/></g></g></g><g fill="#000000" fill-opacity="1"><g transform="translate(12.212824, 227.868943)"><g><path d="M 32.125 -106.890625 L 32.125 0 L 7.78125 0 L 7.78125 -106.890625 Z M 32.125 -106.890625 "/></g></g></g><g fill="#000000" fill-opacity="1"><g transform="translate(276.484277, 507.487158)"><g><path d="M 0.734375 -60.53125 L 0.734375 -75.65625 L 53.921875 -75.65625 L 53.921875 -60.53125 L 35.953125 -60.53125 L 35.953125 0 L 18.703125 0 L 18.703125 -60.53125 Z M 0.734375 -60.53125 "/></g></g></g><g fill="#000000" fill-opacity="1"><g transform="translate(331.142701, 507.487158)"><g><path d="M 48.78125 -75.65625 L 48.78125 -60.53125 L 22.75 -60.53125 L 22.75 -45.484375 L 47.6875 -45.484375 L 47.6875 -30.359375 L 22.75 -30.359375 L 22.75 -15.125 L 48.78125 -15.125 L 48.78125 0 L 5.5 0 L 5.5 -75.65625 Z M 48.78125 -75.65625 "/></g></g></g><g fill="#000000" fill-opacity="1"><g transform="translate(245.215995, 596.352097)"><g><path d="M 45.765625 -15.59375 C 48.390625 -15.59375 50.9375 -15.988281 53.40625 -16.78125 C 55.882812 -17.570312 57.707031 -18.335938 58.875 -19.078125 L 60.609375 -20.265625 L 67.953125 -5.59375 C 67.703125 -5.40625 67.363281 -5.160156 66.9375 -4.859375 C 66.507812 -4.554688 65.515625 -3.988281 63.953125 -3.15625 C 62.398438 -2.332031 60.738281 -1.613281 58.96875 -1 C 57.195312 -0.394531 54.875 0.148438 52 0.640625 C 49.125 1.128906 46.15625 1.375 43.09375 1.375 C 36.0625 1.375 29.394531 -0.347656 23.09375 -3.796875 C 16.800781 -7.253906 11.726562 -12.007812 7.875 -18.0625 C 4.03125 -24.113281 2.109375 -30.65625 2.109375 -37.6875 C 2.109375 -43.007812 3.238281 -48.113281 5.5 -53 C 7.757812 -57.894531 10.769531 -62.082031 14.53125 -65.5625 C 18.289062 -69.050781 22.675781 -71.832031 27.6875 -73.90625 C 32.707031 -75.988281 37.84375 -77.03125 43.09375 -77.03125 C 47.988281 -77.03125 52.5 -76.445312 56.625 -75.28125 C 60.75 -74.125 63.671875 -72.960938 65.390625 -71.796875 L 67.953125 -70.0625 L 60.609375 -55.390625 C 60.179688 -55.753906 59.539062 -56.195312 58.6875 -56.71875 C 57.832031 -57.238281 56.117188 -57.925781 53.546875 -58.78125 C 50.984375 -59.632812 48.390625 -60.0625 45.765625 -60.0625 C 41.609375 -60.0625 37.878906 -59.390625 34.578125 -58.046875 C 31.273438 -56.703125 28.660156 -54.925781 26.734375 -52.71875 C 24.804688 -50.519531 23.335938 -48.148438 22.328125 -45.609375 C 21.316406 -43.078125 20.8125 -40.5 20.8125 -37.875 C 20.8125 -32.125 22.96875 -26.972656 27.28125 -22.421875 C 31.59375 -17.867188 37.753906 -15.59375 45.765625 -15.59375 Z M 45.765625 -15.59375 "/></g></g></g><g fill="#000000" fill-opacity="1"><g transform="translate(314.272696, 596.352097)"><g><path d="M 22.75 -30.359375 L 22.75 0 L 5.5 0 L 5.5 -75.65625 L 22.75 -75.65625 L 22.75 -45.484375 L 47.140625 -45.484375 L 47.140625 -75.65625 L 64.375 -75.65625 L 64.375 0 L 47.140625 0 L 47.140625 -30.359375 Z M 22.75 -30.359375 "/></g></g></g><g fill="#222222" fill-opacity="1"><g transform="translate(38.880654, 286.094905)"><g><path d="M 28.984375 -33.890625 L 28.984375 -19.578125 L 25.945312 -19.578125 L 25.945312 -33.28125 L 20.957031 -33.28125 L 20.957031 -9.121094 C 15.445312 -12 13.578125 -18.203125 13.578125 -24.726562 L 13.578125 -25.742188 L 19.175781 -25.742188 L 19.175781 -30.078125 L 2.269531 -30.078125 L 2.269531 -25.742188 L 8.390625 -25.742188 L 8.390625 -24.726562 C 8.390625 -17.554688 6.609375 -10.945312 1.054688 -7.703125 L 4.257812 -3.648438 C 7.742188 -5.714844 9.933594 -9.242188 11.148438 -13.539062 C 12.484375 -9.808594 14.632812 -6.808594 17.957031 -5.027344 L 20.957031 -9.039062 L 20.957031 1.785156 L 25.945312 1.785156 L 25.945312 -15.203125 L 28.984375 -15.203125 L 28.984375 3.445312 L 34.050781 3.445312 L 34.050781 -33.890625 Z M 28.984375 -33.890625 "/></g></g></g><g fill="#222222" fill-opacity="1"><g transform="translate(76.172988, 286.094905)"><g><path d="M 23.429688 -31.496094 L 15.527344 -31.496094 L 15.527344 -34.132812 L 10.175781 -34.132812 L 10.175781 -31.496094 L 2.230469 -31.496094 L 2.230469 -27.972656 L 23.429688 -27.972656 Z M 8.796875 -22.375 C 8.796875 -23.429688 10.296875 -23.957031 12.851562 -23.957031 C 15.402344 -23.957031 16.863281 -23.429688 16.863281 -22.375 C 16.863281 -21.28125 15.402344 -20.714844 12.851562 -20.714844 C 10.296875 -20.714844 8.796875 -21.28125 8.796875 -22.375 Z M 24.363281 -16.863281 C 21.527344 -16.539062 18.527344 -16.296875 15.527344 -16.132812 L 15.527344 -17.632812 C 19.5 -18.121094 21.929688 -19.824219 21.929688 -22.375 C 21.929688 -25.417969 18.402344 -27.242188 12.851562 -27.242188 C 7.296875 -27.242188 3.730469 -25.417969 3.730469 -22.375 C 3.730469 -19.824219 6.160156 -18.121094 10.175781 -17.632812 L 10.175781 -15.929688 C 6.972656 -15.851562 3.972656 -15.851562 1.296875 -15.851562 L 1.824219 -12.203125 C 8.269531 -12.203125 16.902344 -12.28125 24.726562 -13.660156 Z M 11.59375 -2.109375 L 31.335938 -2.109375 L 31.335938 -10.539062 L 6.242188 -10.539062 L 6.242188 -7.011719 L 26.066406 -7.011719 L 26.066406 -5.390625 L 6.285156 -5.390625 L 6.285156 3.203125 L 32.632812 3.203125 L 32.632812 -0.324219 L 11.59375 -0.324219 Z M 31.335938 -25.050781 L 31.335938 -33.847656 L 25.984375 -33.847656 L 25.984375 -11.878906 L 31.335938 -11.878906 L 31.335938 -20.675781 L 36.039062 -20.675781 L 36.039062 -25.050781 Z M 31.335938 -25.050781 "/></g></g></g><g fill="#222222" fill-opacity="1"><g transform="translate(113.465322, 286.094905)"><g><path d="M 18.527344 -0.527344 C 13.539062 -0.527344 10.984375 -1.378906 10.984375 -3.285156 C 10.984375 -5.1875 13.539062 -6 18.527344 -6 C 23.511719 -6 26.066406 -5.1875 26.066406 -3.285156 C 26.066406 -1.378906 23.511719 -0.527344 18.527344 -0.527344 Z M 18.527344 -10.054688 C 10.457031 -10.054688 5.59375 -7.621094 5.59375 -3.285156 C 5.59375 1.054688 10.457031 3.527344 18.527344 3.527344 C 26.59375 3.527344 31.496094 1.054688 31.496094 -3.285156 C 31.496094 -7.621094 26.59375 -10.054688 18.527344 -10.054688 Z M 14.675781 -19.253906 C 15.890625 -19.09375 17.1875 -19.011719 18.605469 -19.011719 C 19.984375 -19.011719 21.28125 -19.09375 22.457031 -19.214844 L 22.457031 -16.132812 L 14.675781 -16.132812 Z M 18.605469 -29.226562 C 23.714844 -29.226562 26.632812 -28.214844 26.632812 -26.105469 C 26.632812 -24.078125 23.714844 -23.023438 18.605469 -23.023438 C 13.539062 -23.023438 10.621094 -24.078125 10.621094 -26.105469 C 10.621094 -28.214844 13.539062 -29.226562 18.605469 -29.226562 Z M 27.808594 -16.132812 L 27.808594 -20.59375 C 30.566406 -21.808594 32.144531 -23.675781 32.144531 -26.105469 C 32.144531 -30.566406 26.875 -33.28125 18.605469 -33.28125 C 10.378906 -33.28125 5.109375 -30.566406 5.109375 -26.105469 C 5.109375 -23.714844 6.648438 -21.851562 9.324219 -20.632812 L 9.324219 -16.132812 L 1.742188 -16.132812 L 1.742188 -11.917969 L 35.46875 -11.917969 L 35.46875 -16.132812 Z M 27.808594 -16.132812 "/></g></g></g><g fill="#222222" fill-opacity="1"><g transform="translate(150.757656, 286.094905)"><g><path d="M 3.445312 -30.039062 L 3.445312 -25.699219 L 15.648438 -25.699219 C 14.675781 -17.429688 10.054688 -11.511719 1.378906 -7.054688 L 4.378906 -2.960938 C 16.78125 -9.242188 21.039062 -18.851562 21.039062 -30.039062 Z M 36.199219 -19.621094 L 30.96875 -19.621094 L 30.96875 -33.890625 L 25.621094 -33.890625 L 25.621094 3.40625 L 30.96875 3.40625 L 30.96875 -15.203125 L 36.199219 -15.203125 Z M 36.199219 -19.621094 "/></g></g></g><g fill="#222222" fill-opacity="1"><g transform="translate(188.04999, 286.094905)"><g><path d="M 31.78125 -24.566406 L 11.351562 -24.566406 L 11.351562 -33.199219 L 6 -33.199219 L 6 -20.308594 L 31.78125 -20.308594 Z M 18.527344 -0.6875 C 13.539062 -0.6875 10.984375 -1.582031 10.984375 -3.527344 C 10.984375 -5.472656 13.539062 -6.363281 18.527344 -6.363281 C 23.511719 -6.363281 26.066406 -5.472656 26.066406 -3.527344 C 26.066406 -1.582031 23.511719 -0.6875 18.527344 -0.6875 Z M 18.527344 -10.457031 C 10.457031 -10.457031 5.59375 -7.90625 5.59375 -3.527344 C 5.59375 0.851562 10.457031 3.40625 18.527344 3.40625 C 26.59375 3.40625 31.496094 0.851562 31.496094 -3.527344 C 31.496094 -7.90625 26.59375 -10.457031 18.527344 -10.457031 Z M 1.785156 -17.148438 L 1.785156 -12.890625 L 35.550781 -12.890625 L 35.550781 -17.148438 Z M 1.785156 -17.148438 "/></g></g></g><g fill="#222222" fill-opacity="1"><g transform="translate(225.342324, 286.094905)"><g><path d="M 18.605469 -29.59375 C 24.039062 -29.59375 26.59375 -28.820312 26.59375 -27.160156 C 26.59375 -25.417969 24.039062 -24.6875 18.605469 -24.6875 C 13.214844 -24.6875 10.660156 -25.417969 10.660156 -27.160156 C 10.660156 -28.820312 13.214844 -29.59375 18.605469 -29.59375 Z M 18.605469 -20.796875 C 27.160156 -20.796875 32.144531 -23.023438 32.144531 -27.160156 C 32.144531 -31.253906 27.160156 -33.523438 18.605469 -33.523438 C 10.09375 -33.523438 5.109375 -31.253906 5.109375 -27.160156 C 5.109375 -23.023438 10.09375 -20.796875 18.605469 -20.796875 Z M 21.808594 -12.527344 L 15.484375 -12.527344 L 15.484375 -15.121094 L 21.808594 -15.121094 Z M 35.511719 -15.121094 L 35.511719 -19.335938 L 1.703125 -19.335938 L 1.703125 -15.121094 L 10.132812 -15.121094 L 10.132812 -12.527344 L 5.554688 -12.527344 L 5.554688 -8.59375 L 26.105469 -8.59375 L 26.105469 -6.609375 L 5.632812 -6.609375 L 5.632812 3.203125 L 32.347656 3.203125 L 32.347656 -0.8125 L 10.945312 -0.8125 L 10.945312 -2.917969 L 31.375 -2.917969 L 31.375 -12.527344 L 27.160156 -12.527344 L 27.160156 -15.121094 Z M 35.511719 -15.121094 "/></g></g></g><g fill="#222222" fill-opacity="1"><g transform="translate(262.634657, 286.094905)"><g><path d="M 27.605469 -11.027344 L 32.957031 -11.027344 L 32.957031 -33.847656 L 27.605469 -33.847656 L 27.605469 -27.847656 L 23.226562 -27.847656 L 23.226562 -23.550781 L 27.605469 -23.550781 L 27.605469 -20.835938 L 23.226562 -20.835938 L 23.226562 -16.578125 L 27.605469 -16.578125 Z M 10.78125 -27.121094 L 14.269531 -27.121094 L 14.269531 -16.984375 C 13.09375 -16.945312 11.917969 -16.863281 10.78125 -16.863281 Z M 22.824219 -17.632812 C 21.726562 -17.511719 20.59375 -17.390625 19.417969 -17.308594 L 19.417969 -27.121094 L 22.375 -27.121094 L 22.375 -31.375 L 2.675781 -31.375 L 2.675781 -27.121094 L 5.632812 -27.121094 L 5.632812 -16.742188 C 4.257812 -16.742188 2.960938 -16.742188 1.742188 -16.742188 L 2.3125 -12.40625 C 8.1875 -12.40625 16.214844 -12.527344 23.148438 -13.703125 Z M 20.308594 -0.527344 C 15.402344 -0.527344 12.890625 -1.5 12.890625 -3.445312 C 12.890625 -5.433594 15.402344 -6.363281 20.308594 -6.363281 C 25.253906 -6.363281 27.769531 -5.433594 27.769531 -3.445312 C 27.769531 -1.5 25.253906 -0.527344 20.308594 -0.527344 Z M 20.308594 -10.417969 C 12.363281 -10.417969 7.539062 -7.863281 7.539062 -3.445312 C 7.539062 0.933594 12.363281 3.527344 20.308594 3.527344 C 28.296875 3.527344 33.117188 0.933594 33.117188 -3.445312 C 33.117188 -7.863281 28.296875 -10.417969 20.308594 -10.417969 Z M 20.308594 -10.417969 "/></g></g></g><g fill="#222222" fill-opacity="1"><g transform="translate(299.926991, 286.094905)"><g><path d="M 3.445312 -30.039062 L 3.445312 -25.699219 L 15.648438 -25.699219 C 14.675781 -17.429688 10.054688 -11.511719 1.378906 -7.054688 L 4.378906 -2.960938 C 16.78125 -9.242188 21.039062 -18.851562 21.039062 -30.039062 Z M 36.199219 -19.621094 L 30.96875 -19.621094 L 30.96875 -33.890625 L 25.621094 -33.890625 L 25.621094 3.40625 L 30.96875 3.40625 L 30.96875 -15.203125 L 36.199219 -15.203125 Z M 36.199219 -19.621094 "/></g></g></g><g fill="#222222" fill-opacity="1"><g transform="translate(99.865026, 342.344902)"><g><path d="M 7.734375 2.84375 L 7.734375 2.1875 L 4.9375 2.1875 L 4.9375 -28.453125 L 7.9375 -28.453125 L 7.9375 -29.09375 L 1.625 -29.09375 L 1.625 2.84375 Z M 7.734375 2.84375 "/></g></g></g><g fill="#222222" fill-opacity="1"><g transform="translate(108.58008, 342.344902)"><g><path d="M 8.75 -14.03125 L 11.953125 -14.03125 C 12.546875 -14.03125 13.019531 -13.941406 13.375 -13.765625 C 13.726562 -13.585938 14.003906 -13.335938 14.203125 -13.015625 C 14.410156 -12.691406 14.566406 -12.296875 14.671875 -11.828125 C 14.773438 -11.367188 14.882812 -10.859375 15 -10.296875 C 15.082031 -9.921875 15.191406 -9.734375 15.328125 -9.734375 C 15.484375 -9.734375 15.5625 -9.90625 15.5625 -10.25 L 15.5625 -18.484375 C 15.5625 -18.804688 15.484375 -18.96875 15.328125 -18.96875 C 15.191406 -18.96875 15.082031 -18.78125 15 -18.40625 C 14.882812 -17.832031 14.773438 -17.316406 14.671875 -16.859375 C 14.566406 -16.398438 14.410156 -16.007812 14.203125 -15.6875 C 14.003906 -15.363281 13.726562 -15.113281 13.375 -14.9375 C 13.019531 -14.757812 12.546875 -14.671875 11.953125 -14.671875 L 8.75 -14.671875 L 8.75 -26.59375 L 14.921875 -26.59375 C 15.835938 -26.59375 16.601562 -26.367188 17.21875 -25.921875 C 17.84375 -25.472656 18.34375 -24.914062 18.71875 -24.25 C 19.101562 -23.59375 19.378906 -22.890625 19.546875 -22.140625 C 19.722656 -21.398438 19.828125 -20.734375 19.859375 -20.140625 C 19.859375 -19.765625 19.96875 -19.578125 20.1875 -19.578125 C 20.375 -19.578125 20.46875 -19.753906 20.46875 -20.109375 L 20.46875 -26.265625 C 20.46875 -26.910156 20.128906 -27.234375 19.453125 -27.234375 L 1.34375 -27.234375 L 1.34375 -26.59375 L 4.828125 -26.59375 L 4.828125 -0.65625 L 1.375 -0.65625 L 1.375 0 L 20.421875 0 C 21.210938 0 21.609375 -0.429688 21.609375 -1.296875 L 21.609375 -7.375 C 21.609375 -8.019531 21.5 -8.34375 21.28125 -8.34375 C 21.09375 -8.34375 20.941406 -8.0625 20.828125 -7.5 C 20.617188 -6.46875 20.390625 -5.53125 20.140625 -4.6875 C 19.898438 -3.851562 19.578125 -3.132812 19.171875 -2.53125 C 18.765625 -1.925781 18.25 -1.460938 17.625 -1.140625 C 17.007812 -0.816406 16.226562 -0.65625 15.28125 -0.65625 L 8.75 -0.65625 Z M 8.75 -14.03125 "/></g></g></g><g fill="#222222" fill-opacity="1"><g transform="translate(131.847256, 342.344902)"><g><path d="M 1.09375 -0.65625 L 1.09375 0 L 8.71875 0 L 8.71875 -0.65625 L 5.234375 -0.65625 L 5.234375 -25.40625 L 20.921875 0.328125 L 22.296875 0.328125 L 22.296875 -26.59375 L 25.78125 -26.59375 L 25.78125 -27.234375 L 18.15625 -27.234375 L 18.15625 -26.59375 L 21.640625 -26.59375 L 21.640625 -6.6875 L 9.078125 -27.234375 L 1.09375 -27.234375 L 1.09375 -26.59375 L 4.578125 -26.59375 L 4.578125 -0.65625 Z M 1.09375 -0.65625 "/></g></g></g><g fill="#222222" fill-opacity="1"><g transform="translate(158.478846, 342.344902)"><g><path d="M 15.03125 -27.921875 L 13.421875 -27.921875 C 13.421875 -27.921875 13.269531 -27.710938 12.96875 -27.296875 C 12.675781 -26.878906 12.21875 -26.207031 11.59375 -25.28125 C 10.96875 -24.363281 10.175781 -23.175781 9.21875 -21.71875 C 8.257812 -20.257812 7.101562 -18.492188 5.75 -16.421875 C 5.15625 -15.523438 4.601562 -14.644531 4.09375 -13.78125 C 3.582031 -12.914062 3.128906 -12.144531 2.734375 -11.46875 C 2.335938 -10.789062 2.03125 -10.242188 1.8125 -9.828125 C 1.601562 -9.410156 1.5 -9.203125 1.5 -9.203125 L 1.5 -8.34375 L 11.1875 -8.34375 L 11.1875 -0.65625 L 7.625 -0.65625 L 7.625 0 L 18.640625 0 L 18.640625 -0.65625 L 15.03125 -0.65625 L 15.03125 -8.34375 L 19.78125 -8.34375 L 19.78125 -4.546875 L 20.421875 -4.546875 L 20.421875 -13.09375 L 19.78125 -13.09375 L 19.78125 -9 L 15.03125 -9 Z M 2.265625 -9 C 2.347656 -9.15625 2.550781 -9.515625 2.875 -10.078125 C 3.195312 -10.648438 3.566406 -11.304688 3.984375 -12.046875 C 4.410156 -12.796875 4.863281 -13.578125 5.34375 -14.390625 C 5.832031 -15.203125 6.28125 -15.929688 6.6875 -16.578125 C 7.007812 -17.085938 7.414062 -17.703125 7.90625 -18.421875 C 8.394531 -19.140625 8.867188 -19.84375 9.328125 -20.53125 C 9.785156 -21.21875 10.1875 -21.816406 10.53125 -22.328125 C 10.882812 -22.847656 11.101562 -23.175781 11.1875 -23.3125 L 11.1875 -9 Z M 2.265625 -9 "/></g></g></g><g fill="#222222" fill-opacity="1"><g transform="translate(180.286752, 342.344902)"><g><path d="M 15.484375 -26.625 L 5.1875 -26.625 C 4.644531 -26.625 4.25 -26.484375 4 -26.203125 C 3.757812 -25.921875 3.640625 -25.535156 3.640625 -25.046875 L 3.640625 -15.03125 C 4.398438 -15.4375 5.1875 -15.726562 6 -15.90625 C 6.8125 -16.082031 7.929688 -16.171875 9.359375 -16.171875 C 10.335938 -16.171875 11.238281 -15.992188 12.0625 -15.640625 C 12.882812 -15.296875 13.597656 -14.789062 14.203125 -14.125 C 14.816406 -13.457031 15.289062 -12.644531 15.625 -11.6875 C 15.957031 -10.726562 16.125 -9.628906 16.125 -8.390625 C 16.125 -5.609375 15.578125 -3.519531 14.484375 -2.125 C 13.390625 -0.738281 11.875 -0.046875 9.9375 -0.046875 C 8.957031 -0.046875 8.082031 -0.1875 7.3125 -0.46875 C 6.539062 -0.75 5.875 -1.132812 5.3125 -1.625 C 5.125 -1.78125 5.03125 -1.941406 5.03125 -2.109375 C 5.03125 -2.191406 5.039062 -2.269531 5.0625 -2.34375 C 5.09375 -2.425781 5.175781 -2.492188 5.3125 -2.546875 C 5.5 -2.609375 5.710938 -2.675781 5.953125 -2.75 C 6.203125 -2.832031 6.429688 -2.953125 6.640625 -3.109375 C 6.859375 -3.273438 7.039062 -3.492188 7.1875 -3.765625 C 7.34375 -4.035156 7.421875 -4.375 7.421875 -4.78125 C 7.421875 -5.5625 7.179688 -6.140625 6.703125 -6.515625 C 6.234375 -6.898438 5.6875 -7.09375 5.0625 -7.09375 C 4.445312 -7.09375 3.894531 -6.867188 3.40625 -6.421875 C 2.914062 -5.972656 2.671875 -5.347656 2.671875 -4.546875 C 2.671875 -3.679688 2.894531 -2.921875 3.34375 -2.265625 C 3.789062 -1.617188 4.363281 -1.078125 5.0625 -0.640625 C 5.769531 -0.210938 6.554688 0.113281 7.421875 0.34375 C 8.285156 0.570312 9.125 0.6875 9.9375 0.6875 C 11.257812 0.6875 12.535156 0.476562 13.765625 0.0625 C 14.992188 -0.351562 16.085938 -0.953125 17.046875 -1.734375 C 18.003906 -2.523438 18.769531 -3.476562 19.34375 -4.59375 C 19.925781 -5.71875 20.21875 -7 20.21875 -8.4375 C 20.21875 -9.96875 19.90625 -11.273438 19.28125 -12.359375 C 18.664062 -13.441406 17.84375 -14.328125 16.8125 -15.015625 C 15.789062 -15.703125 14.628906 -16.207031 13.328125 -16.53125 C 12.035156 -16.851562 10.710938 -17.015625 9.359375 -17.015625 C 7.929688 -17.015625 6.859375 -16.929688 6.140625 -16.765625 C 5.421875 -16.609375 4.859375 -16.453125 4.453125 -16.296875 L 4.453125 -23.140625 L 14.34375 -23.140625 C 15.019531 -23.140625 15.582031 -23.28125 16.03125 -23.5625 C 16.476562 -23.851562 16.835938 -24.191406 17.109375 -24.578125 C 17.378906 -24.972656 17.570312 -25.382812 17.6875 -25.8125 C 17.8125 -26.25 17.875 -26.613281 17.875 -26.90625 C 17.875 -27.53125 17.738281 -27.84375 17.46875 -27.84375 C 17.332031 -27.84375 17.226562 -27.796875 17.15625 -27.703125 C 17.09375 -27.609375 17.035156 -27.46875 16.984375 -27.28125 C 16.929688 -27.007812 16.796875 -26.832031 16.578125 -26.75 C 16.359375 -26.664062 15.992188 -26.625 15.484375 -26.625 Z M 15.484375 -26.625 "/></g></g></g><g fill="#222222" fill-opacity="1"><g transform="translate(202.094658, 342.344902)"><g><path d="M 15.484375 -26.625 L 5.1875 -26.625 C 4.644531 -26.625 4.25 -26.484375 4 -26.203125 C 3.757812 -25.921875 3.640625 -25.535156 3.640625 -25.046875 L 3.640625 -15.03125 C 4.398438 -15.4375 5.1875 -15.726562 6 -15.90625 C 6.8125 -16.082031 7.929688 -16.171875 9.359375 -16.171875 C 10.335938 -16.171875 11.238281 -15.992188 12.0625 -15.640625 C 12.882812 -15.296875 13.597656 -14.789062 14.203125 -14.125 C 14.816406 -13.457031 15.289062 -12.644531 15.625 -11.6875 C 15.957031 -10.726562 16.125 -9.628906 16.125 -8.390625 C 16.125 -5.609375 15.578125 -3.519531 14.484375 -2.125 C 13.390625 -0.738281 11.875 -0.046875 9.9375 -0.046875 C 8.957031 -0.046875 8.082031 -0.1875 7.3125 -0.46875 C 6.539062 -0.75 5.875 -1.132812 5.3125 -1.625 C 5.125 -1.78125 5.03125 -1.941406 5.03125 -2.109375 C 5.03125 -2.191406 5.039062 -2.269531 5.0625 -2.34375 C 5.09375 -2.425781 5.175781 -2.492188 5.3125 -2.546875 C 5.5 -2.609375 5.710938 -2.675781 5.953125 -2.75 C 6.203125 -2.832031 6.429688 -2.953125 6.640625 -3.109375 C 6.859375 -3.273438 7.039062 -3.492188 7.1875 -3.765625 C 7.34375 -4.035156 7.421875 -4.375 7.421875 -4.78125 C 7.421875 -5.5625 7.179688 -6.140625 6.703125 -6.515625 C 6.234375 -6.898438 5.6875 -7.09375 5.0625 -7.09375 C 4.445312 -7.09375 3.894531 -6.867188 3.40625 -6.421875 C 2.914062 -5.972656 2.671875 -5.347656 2.671875 -4.546875 C 2.671875 -3.679688 2.894531 -2.921875 3.34375 -2.265625 C 3.789062 -1.617188 4.363281 -1.078125 5.0625 -0.640625 C 5.769531 -0.210938 6.554688 0.113281 7.421875 0.34375 C 8.285156 0.570312 9.125 0.6875 9.9375 0.6875 C 11.257812 0.6875 12.535156 0.476562 13.765625 0.0625 C 14.992188 -0.351562 16.085938 -0.953125 17.046875 -1.734375 C 18.003906 -2.523438 18.769531 -3.476562 19.34375 -4.59375 C 19.925781 -5.71875 20.21875 -7 20.21875 -8.4375 C 20.21875 -9.96875 19.90625 -11.273438 19.28125 -12.359375 C 18.664062 -13.441406 17.84375 -14.328125 16.8125 -15.015625 C 15.789062 -15.703125 14.628906 -16.207031 13.328125 -16.53125 C 12.035156 -16.851562 10.710938 -17.015625 9.359375 -17.015625 C 7.929688 -17.015625 6.859375 -16.929688 6.140625 -16.765625 C 5.421875 -16.609375 4.859375 -16.453125 4.453125 -16.296875 L 4.453125 -23.140625 L 14.34375 -23.140625 C 15.019531 -23.140625 15.582031 -23.28125 16.03125 -23.5625 C 16.476562 -23.851562 16.835938 -24.191406 17.109375 -24.578125 C 17.378906 -24.972656 17.570312 -25.382812 17.6875 -25.8125 C 17.8125 -26.25 17.875 -26.613281 17.875 -26.90625 C 17.875 -27.53125 17.738281 -27.84375 17.46875 -27.84375 C 17.332031 -27.84375 17.226562 -27.796875 17.15625 -27.703125 C 17.09375 -27.609375 17.035156 -27.46875 16.984375 -27.28125 C 16.929688 -27.007812 16.796875 -26.832031 16.578125 -26.75 C 16.359375 -26.664062 15.992188 -26.625 15.484375 -26.625 Z M 15.484375 -26.625 "/></g></g></g><g fill="#222222" fill-opacity="1"><g transform="translate(223.902564, 342.344902)"><g><path d="M 15.484375 -26.625 L 5.1875 -26.625 C 4.644531 -26.625 4.25 -26.484375 4 -26.203125 C 3.757812 -25.921875 3.640625 -25.535156 3.640625 -25.046875 L 3.640625 -15.03125 C 4.398438 -15.4375 5.1875 -15.726562 6 -15.90625 C 6.8125 -16.082031 7.929688 -16.171875 9.359375 -16.171875 C 10.335938 -16.171875 11.238281 -15.992188 12.0625 -15.640625 C 12.882812 -15.296875 13.597656 -14.789062 14.203125 -14.125 C 14.816406 -13.457031 15.289062 -12.644531 15.625 -11.6875 C 15.957031 -10.726562 16.125 -9.628906 16.125 -8.390625 C 16.125 -5.609375 15.578125 -3.519531 14.484375 -2.125 C 13.390625 -0.738281 11.875 -0.046875 9.9375 -0.046875 C 8.957031 -0.046875 8.082031 -0.1875 7.3125 -0.46875 C 6.539062 -0.75 5.875 -1.132812 5.3125 -1.625 C 5.125 -1.78125 5.03125 -1.941406 5.03125 -2.109375 C 5.03125 -2.191406 5.039062 -2.269531 5.0625 -2.34375 C 5.09375 -2.425781 5.175781 -2.492188 5.3125 -2.546875 C 5.5 -2.609375 5.710938 -2.675781 5.953125 -2.75 C 6.203125 -2.832031 6.429688 -2.953125 6.640625 -3.109375 C 6.859375 -3.273438 7.039062 -3.492188 7.1875 -3.765625 C 7.34375 -4.035156 7.421875 -4.375 7.421875 -4.78125 C 7.421875 -5.5625 7.179688 -6.140625 6.703125 -6.515625 C 6.234375 -6.898438 5.6875 -7.09375 5.0625 -7.09375 C 4.445312 -7.09375 3.894531 -6.867188 3.40625 -6.421875 C 2.914062 -5.972656 2.671875 -5.347656 2.671875 -4.546875 C 2.671875 -3.679688 2.894531 -2.921875 3.34375 -2.265625 C 3.789062 -1.617188 4.363281 -1.078125 5.0625 -0.640625 C 5.769531 -0.210938 6.554688 0.113281 7.421875 0.34375 C 8.285156 0.570312 9.125 0.6875 9.9375 0.6875 C 11.257812 0.6875 12.535156 0.476562 13.765625 0.0625 C 14.992188 -0.351562 16.085938 -0.953125 17.046875 -1.734375 C 18.003906 -2.523438 18.769531 -3.476562 19.34375 -4.59375 C 19.925781 -5.71875 20.21875 -7 20.21875 -8.4375 C 20.21875 -9.96875 19.90625 -11.273438 19.28125 -12.359375 C 18.664062 -13.441406 17.84375 -14.328125 16.8125 -15.015625 C 15.789062 -15.703125 14.628906 -16.207031 13.328125 -16.53125 C 12.035156 -16.851562 10.710938 -17.015625 9.359375 -17.015625 C 7.929688 -17.015625 6.859375 -16.929688 6.140625 -16.765625 C 5.421875 -16.609375 4.859375 -16.453125 4.453125 -16.296875 L 4.453125 -23.140625 L 14.34375 -23.140625 C 15.019531 -23.140625 15.582031 -23.28125 16.03125 -23.5625 C 16.476562 -23.851562 16.835938 -24.191406 17.109375 -24.578125 C 17.378906 -24.972656 17.570312 -25.382812 17.6875 -25.8125 C 17.8125 -26.25 17.875 -26.613281 17.875 -26.90625 C 17.875 -27.53125 17.738281 -27.84375 17.46875 -27.84375 C 17.332031 -27.84375 17.226562 -27.796875 17.15625 -27.703125 C 17.09375 -27.609375 17.035156 -27.46875 16.984375 -27.28125 C 16.929688 -27.007812 16.796875 -26.832031 16.578125 -26.75 C 16.359375 -26.664062 15.992188 -26.625 15.484375 -26.625 Z M 15.484375 -26.625 "/></g></g></g><g fill="#222222" fill-opacity="1"><g transform="translate(245.71047, 342.344902)"><g><path d="M 15.484375 -26.625 L 5.1875 -26.625 C 4.644531 -26.625 4.25 -26.484375 4 -26.203125 C 3.757812 -25.921875 3.640625 -25.535156 3.640625 -25.046875 L 3.640625 -15.03125 C 4.398438 -15.4375 5.1875 -15.726562 6 -15.90625 C 6.8125 -16.082031 7.929688 -16.171875 9.359375 -16.171875 C 10.335938 -16.171875 11.238281 -15.992188 12.0625 -15.640625 C 12.882812 -15.296875 13.597656 -14.789062 14.203125 -14.125 C 14.816406 -13.457031 15.289062 -12.644531 15.625 -11.6875 C 15.957031 -10.726562 16.125 -9.628906 16.125 -8.390625 C 16.125 -5.609375 15.578125 -3.519531 14.484375 -2.125 C 13.390625 -0.738281 11.875 -0.046875 9.9375 -0.046875 C 8.957031 -0.046875 8.082031 -0.1875 7.3125 -0.46875 C 6.539062 -0.75 5.875 -1.132812 5.3125 -1.625 C 5.125 -1.78125 5.03125 -1.941406 5.03125 -2.109375 C 5.03125 -2.191406 5.039062 -2.269531 5.0625 -2.34375 C 5.09375 -2.425781 5.175781 -2.492188 5.3125 -2.546875 C 5.5 -2.609375 5.710938 -2.675781 5.953125 -2.75 C 6.203125 -2.832031 6.429688 -2.953125 6.640625 -3.109375 C 6.859375 -3.273438 7.039062 -3.492188 7.1875 -3.765625 C 7.34375 -4.035156 7.421875 -4.375 7.421875 -4.78125 C 7.421875 -5.5625 7.179688 -6.140625 6.703125 -6.515625 C 6.234375 -6.898438 5.6875 -7.09375 5.0625 -7.09375 C 4.445312 -7.09375 3.894531 -6.867188 3.40625 -6.421875 C 2.914062 -5.972656 2.671875 -5.347656 2.671875 -4.546875 C 2.671875 -3.679688 2.894531 -2.921875 3.34375 -2.265625 C 3.789062 -1.617188 4.363281 -1.078125 5.0625 -0.640625 C 5.769531 -0.210938 6.554688 0.113281 7.421875 0.34375 C 8.285156 0.570312 9.125 0.6875 9.9375 0.6875 C 11.257812 0.6875 12.535156 0.476562 13.765625 0.0625 C 14.992188 -0.351562 16.085938 -0.953125 17.046875 -1.734375 C 18.003906 -2.523438 18.769531 -3.476562 19.34375 -4.59375 C 19.925781 -5.71875 20.21875 -7 20.21875 -8.4375 C 20.21875 -9.96875 19.90625 -11.273438 19.28125 -12.359375 C 18.664062 -13.441406 17.84375 -14.328125 16.8125 -15.015625 C 15.789062 -15.703125 14.628906 -16.207031 13.328125 -16.53125 C 12.035156 -16.851562 10.710938 -17.015625 9.359375 -17.015625 C 7.929688 -17.015625 6.859375 -16.929688 6.140625 -16.765625 C 5.421875 -16.609375 4.859375 -16.453125 4.453125 -16.296875 L 4.453125 -23.140625 L 14.34375 -23.140625 C 15.019531 -23.140625 15.582031 -23.28125 16.03125 -23.5625 C 16.476562 -23.851562 16.835938 -24.191406 17.109375 -24.578125 C 17.378906 -24.972656 17.570312 -25.382812 17.6875 -25.8125 C 17.8125 -26.25 17.875 -26.613281 17.875 -26.90625 C 17.875 -27.53125 17.738281 -27.84375 17.46875 -27.84375 C 17.332031 -27.84375 17.226562 -27.796875 17.15625 -27.703125 C 17.09375 -27.609375 17.035156 -27.46875 16.984375 -27.28125 C 16.929688 -27.007812 16.796875 -26.832031 16.578125 -26.75 C 16.359375 -26.664062 15.992188 -26.625 15.484375 -26.625 Z M 15.484375 -26.625 "/></g></g></g><g fill="#222222" fill-opacity="1"><g transform="translate(267.518376, 342.344902)"><g><path d="M 4.421875 -28.453125 L 4.421875 2.1875 L 1.578125 2.1875 L 1.578125 2.84375 L 7.734375 2.84375 L 7.734375 -29.09375 L 1.375 -29.09375 L 1.375 -28.453125 Z M 4.421875 -28.453125 "/></g></g></g><g fill="#222222" fill-opacity="1"><g transform="translate(188.04862, 398.5949)"><g/></g></g><g clip-path="url(#44669b0174)"><path fill="#000000" d="M 153.804688 110.601562 L 221.304688 110.601562 L 221.304688 178.101562 L 153.804688 178.101562 Z M 153.804688 110.601562 " fill-opacity="1" fill-rule="nonzero"/></g><g clip-path="url(#38917998cf)"><path fill="#000000" d="M 153.804688 422.554688 L 221.304688 422.554688 L 221.304688 490.054688 L 153.804688 490.054688 Z M 153.804688 422.554688 " fill-opacity="1" fill-rule="nonzero"/></g></svg>